<?xml version="1.0" encoding="UTF-8" standalone="no"?>
<!-- Created with Inkscape (http://www.inkscape.org/) -->
<svg
   xmlns:svg="http://www.w3.org/2000/svg"
   xmlns="http://www.w3.org/2000/svg"
   version="1.0"
   width="800"
   height="224.242"
   viewBox="0 0 800 224.242"
   id="Layer_1"
   xml:space="preserve"
   style="overflow:visible"><defs
   id="defs22" />
<path
   d="M 89.828,99.664 C 121.955,99.664 134.414,68.411 134.414,64.913 C 134.414,63.821 133.757,63.603 132.884,63.603 C 131.573,63.603 129.825,72.125 123.267,79.994 C 116.274,88.518 108.624,93.109 97.696,93.109 C 79.338,93.109 67.973,73 67.973,55.953 C 67.973,25.355 90.92,5.684 117.149,5.684 C 137.256,5.684 155.397,17.267 166.761,33.442 C 151.462,79.558 112.558,149.497 55.733,149.497 C 34.314,149.497 3.497,132.667 3.497,106.004 C 3.497,101.196 5.027,95.513 10.929,93.545 C 16.173,92.017 20.981,89.831 20.981,83.273 C 20.981,78.685 18.14,76.061 14.206,76.061 C 7.212,76.059 0,85.239 0,109.5 C 0,135.509 17.265,157.363 49.176,157.363 C 109.28,157.363 149.712,87.206 170.913,39.124 C 182.935,56.391 187.742,79.12 187.742,102.288 C 187.742,110.374 185.993,115.399 185.993,121.521 C 185.993,125.018 173.972,146.654 173.972,152.775 C 173.972,155.615 174.628,157.363 178.343,157.363 C 185.119,157.363 183.589,154.088 190.583,123.269 C 194.299,106.876 231.234,39.998 275.82,23.169 C 294.836,15.957 301.174,13.551 301.174,5.683 C 301.174,2.186 299.642,0.656 294.836,0.656 C 284.782,0.656 269.482,15.737 259.866,22.075 C 255.277,25.135 243.692,27.975 235.387,27.975 C 222.929,27.975 221.835,25.79 219.213,25.79 C 217.903,25.79 217.247,26.446 217.247,27.757 C 217.247,29.286 226.207,30.599 235.605,30.599 C 242.162,30.599 248.937,29.724 254.621,27.975 L 255.057,28.414 C 225.77,50.924 204.351,83.052 190.801,117.366 L 190.364,116.929 C 191.675,106.219 193.425,96.166 193.425,84.801 C 193.425,61.197 188.835,40.432 176.158,22.729 C 177.469,16.173 180.748,6.774 180.748,3.714 C 180.748,1.528 179.435,0.217 178.124,0.217 C 176.375,0.217 175.502,1.31 175.065,3.276 C 173.971,9.178 172.441,12.894 171.129,18.14 C 159.33,6.558 144.905,0 125.235,0 C 90.919,0 57.044,27.539 57.044,64.694 C 57.044,82.616 70.594,99.664 89.828,99.664"
   id="path3"
   style="fill:#231f20" />
<path
   d="M 276.477,60.76 C 276.477,64.039 278.444,66.442 281.503,66.442 C 286.311,66.442 289.153,61.854 289.153,58.138 C 289.153,54.86 287.185,52.455 284.125,52.455 C 279.318,52.455 276.477,57.045 276.477,60.76 M 255.058,96.167 C 251.779,100.757 241.944,110.81 236.262,117.367 C 230.579,123.922 229.705,124.799 229.705,125.235 C 229.705,125.89 229.924,126.547 230.58,126.547 C 231.234,126.547 231.455,126.327 233.639,123.706 C 244.13,111.902 249.595,106.221 252.217,103.597 L 252.654,104.035 C 245.223,115.182 231.892,130.044 231.892,144.685 C 231.892,151.245 235.607,156.051 242.383,156.051 C 248.502,156.051 257.464,150.369 268.173,139.224 C 277.353,129.606 281.505,124.58 281.505,123.923 C 281.505,123.048 280.849,122.832 280.195,122.832 C 279.757,122.832 272.544,131.576 266.862,137.257 C 259.65,144.686 249.596,153.43 242.602,153.43 C 240.635,153.43 238.45,152.555 238.45,148.84 C 238.45,144.249 242.602,138.568 268.829,95.294 L 255.058,96.167 z"
   id="path5"
   style="fill:#231f20" />
<path
   d="M 260.494,213.314 C 260.494,192.987 296.557,173.975 310.981,165.231 C 306.609,178.345 283.223,221.619 266.831,221.619 C 261.15,221.62 260.494,218.342 260.494,213.314 M 347.044,97.259 C 344.201,103.379 340.703,109.281 337.862,113.869 L 337.425,113.432 C 338.081,111.246 338.301,108.624 338.301,105.782 C 338.301,98.352 333.929,95.292 326.935,95.292 C 314.04,95.292 295.244,106.657 285.408,116.929 C 279.289,123.484 278.415,124.579 278.415,125.236 C 278.415,125.89 278.852,126.547 279.289,126.547 C 279.944,126.547 280.381,125.016 281.695,125.016 C 282.348,125.016 282.568,125.237 282.568,125.673 C 282.568,128.95 281.037,131.575 281.037,137.036 C 281.037,148.401 284.315,156.051 294.588,156.051 C 306.609,156.051 321.472,138.788 327.592,130.044 L 328.03,130.481 C 319.941,146.217 316.009,154.524 312.728,161.736 C 276.23,182.501 254.811,195.613 254.811,213.098 C 254.811,220.527 259.401,224.243 265.739,224.243 C 286.063,224.243 315.133,177.253 323.219,160.642 C 332.181,157.583 346.386,147.092 357.97,134.198 C 364.308,127.203 365.84,125.674 365.84,124.58 C 365.84,123.923 365.401,123.485 364.963,123.485 C 364.089,123.485 363.871,124.142 360.375,128.296 C 350.978,139.442 337.208,152.336 324.969,157.362 L 324.531,156.925 L 361.249,96.167 L 347.044,97.259 z M 329.122,97.916 C 334.368,97.916 335.677,101.194 335.677,106.004 C 335.677,118.025 310.763,153.43 294.588,153.43 C 290.875,153.43 288.907,150.371 288.907,146.654 C 288.907,130.044 311.636,97.916 329.122,97.916"
   id="path7"
   style="fill:#231f20" />
<path
   d="M 408.87,76.06 C 423.952,46.336 438.377,27.103 448.868,27.103 C 453.677,27.103 455.425,29.725 455.425,32.13 C 455.425,42.839 444.935,58.575 425.919,75.186 L 396.632,100.975 L 396.195,100.539 M 368.22,155.178 C 374.338,142.721 414.116,97.916 425.699,97.916 C 426.793,97.916 428.104,99.228 428.104,100.758 C 428.104,109.5 404.061,124.8 404.061,144.033 C 404.061,153.65 408.433,156.052 412.805,156.052 C 418.05,156.052 425.263,153.65 440.781,136.6 C 446.463,130.483 451.708,124.36 451.708,123.706 C 451.708,123.049 451.27,122.613 450.616,122.613 C 449.523,122.613 444.495,129.608 439.47,134.634 C 427.23,147.31 420.672,153.429 413.898,153.429 C 411.713,153.429 410.621,151.897 410.621,150.37 C 410.621,140.752 434.661,118.678 434.661,106.657 C 434.661,100.974 432.258,95.292 425.919,95.292 C 418.27,95.292 402.315,109.062 378.055,136.819 L 377.617,136.381 C 384.612,126.11 394.885,106.876 395.759,105.564 C 403.192,94.418 459.797,58.574 460.235,35.407 C 460.235,27.537 457.173,24.479 449.743,24.479 C 424.392,24.479 397.509,83.707 389.859,93.543 C 375.215,112.34 362.757,124.357 362.757,125.889 C 362.757,126.763 362.975,127.201 363.631,127.201 C 364.506,127.201 364.506,126.326 373.904,116.054 C 381.771,107.53 384.832,102.941 390.95,96.166 L 391.17,96.603 C 378.93,114.96 366.691,134.85 354.669,155.176 L 368.22,155.176 L 368.22,155.178 z"
   id="path9"
   style="fill:#231f20" />
<path
   d="M 487.308,75.622 L 478.128,75.622 C 477.911,75.622 477.254,76.279 477.254,76.933 C 477.254,77.59 477.472,78.245 478.347,78.245 L 486.214,78.245 C 476.162,92.889 462.829,108.626 456.272,115.837 C 447.75,125.455 446.876,126.329 446.876,127.203 C 446.876,127.858 447.312,128.076 447.968,128.076 C 448.623,128.076 454.526,120.865 456.492,118.679 C 462.393,111.903 465.671,108.407 469.825,103.38 L 470.261,103.817 C 457.365,122.176 449.935,132.887 449.935,145.344 C 449.935,150.371 452.776,155.836 460.207,156.052 C 466.326,156.052 474.197,151.462 487.525,138.131 C 492.336,133.541 499.329,125.455 499.329,124.8 C 499.329,123.923 499.11,123.485 498.236,123.485 C 497.143,123.485 495.833,126.985 484.685,137.91 C 474.851,147.749 467.201,153.43 460.644,153.43 C 457.802,153.43 456.492,152.336 456.492,150.15 C 456.492,140.099 491.243,90.266 498.017,78.245 L 525.119,78.245 C 525.993,78.245 526.213,77.591 526.213,76.933 C 526.213,76.058 525.558,75.622 525.119,75.622 L 499.548,75.622 L 513.755,53.767 L 500.202,54.641"
   id="path11"
   style="fill:#231f20" />
<path
   d="M 561.591,96.603 C 550.662,118.678 523.342,153.428 509.355,153.428 C 506.513,153.428 505.203,150.807 505.203,148.401 C 505.203,142.063 531.647,103.816 537.112,95.291 L 524.654,95.947 C 518.971,101.193 509.574,109.497 502.141,118.461 C 497.991,123.704 496.678,124.799 496.678,125.235 C 496.678,126.109 496.897,126.547 497.551,126.547 C 498.208,126.547 498.865,125.673 503.89,119.988 C 509.355,113.431 513.508,109.28 520.501,103.378 L 520.939,103.816 C 513.071,114.308 498.647,129.387 498.647,143.812 C 498.647,151.024 501.922,156.05 509.574,156.05 C 519.846,156.05 532.521,140.535 538.86,134.197 L 539.298,134.635 C 538.86,135.726 538.205,137.694 538.205,139.661 C 538.205,147.747 540.173,156.05 550.443,156.05 C 566.18,156.05 577.108,141.409 579.512,141.19 C 587.816,140.752 594.155,137.693 598.964,134.414 C 604.864,130.261 608.579,125.237 608.579,124.801 C 608.579,124.143 608.36,123.486 607.487,123.486 C 606.613,123.486 606.176,124.801 603.336,127.859 C 599.183,132.23 590.877,138.13 581.698,138.568 L 581.26,138.13 C 589.786,131.792 602.68,111.247 602.68,100.101 C 602.68,97.697 600.713,95.292 597.653,95.292 C 592.845,95.292 591.532,97.04 590.878,108.625 C 589.566,133.761 564.87,153.429 551.099,153.429 C 547.603,153.429 545.636,151.68 545.636,148.402 C 545.636,139.661 569.897,104.253 576.017,95.292"
   id="path13"
   style="fill:#231f20" />
<path
   d="M 652.749,60.76 C 652.749,64.039 654.716,66.442 657.776,66.442 C 662.584,66.442 665.423,61.854 665.423,58.138 C 665.423,54.86 663.457,52.455 660.398,52.455 C 655.59,52.455 652.749,57.045 652.749,60.76 M 631.331,96.167 C 628.051,100.757 618.216,110.81 612.534,117.367 C 606.85,123.922 605.977,124.799 605.977,125.235 C 605.977,125.89 606.196,126.547 606.85,126.547 C 607.505,126.547 607.726,126.327 609.912,123.706 C 620.403,111.902 625.866,106.221 628.488,103.597 L 628.925,104.035 C 621.495,115.182 608.162,130.044 608.162,144.685 C 608.162,151.245 611.878,156.051 618.654,156.051 C 624.772,156.051 633.734,150.369 644.445,139.224 C 653.623,129.606 657.776,124.58 657.776,123.923 C 657.776,123.048 657.12,122.832 656.463,122.832 C 656.025,122.832 648.814,131.576 643.131,137.257 C 635.918,144.686 625.865,153.43 618.872,153.43 C 616.904,153.43 614.718,152.555 614.718,148.84 C 614.718,144.249 618.872,138.568 645.098,95.294 L 631.331,96.167 z"
   id="path15"
   style="fill:#231f20" />
<path
   d="M 682.881,144.905 C 686.377,141.189 689.002,136.819 689.002,131.574 C 689.002,122.611 684.411,117.803 684.411,101.629 C 684.411,99.444 684.848,98.789 685.286,96.603 C 689.219,95.293 694.026,93.981 694.026,89.829 C 694.026,87.861 692.933,86.549 690.312,86.549 C 685.502,86.549 683.536,92.887 683.098,93.107 C 681.786,93.761 669.113,107.313 664.083,113.651 C 657.964,121.299 654.468,124.141 654.468,125.673 C 654.468,126.109 654.687,126.547 655.341,126.547 C 655.998,126.547 656.434,125.889 657.309,124.799 C 662.555,118.897 680.039,98.132 682.661,96.602 L 683.099,97.04 C 681.787,98.132 681.787,107.093 681.787,117.586 C 681.787,129.385 669.986,153.428 659.712,153.428 C 657.091,153.428 655.999,152.116 655.999,150.148 C 655.999,146.214 659.057,147.962 659.057,143.593 C 659.057,141.624 656.872,140.097 654.469,140.097 C 650.534,140.097 649.004,142.498 649.004,146.214 C 649.004,148.62 650.753,152.333 652.5,153.648 C 655.342,155.833 657.31,156.049 662.335,156.049 C 674.575,156.049 684.848,149.058 696.649,135.724 C 701.02,130.916 705.61,125.452 705.61,124.799 C 705.61,123.922 705.174,123.484 704.517,123.484 C 703.644,123.484 703.644,124.578 699.054,129.605 C 695.337,133.976 690.532,139.876 683.317,144.904 L 682.88,144.467"
   id="path17"
   style="fill:#231f20" />
<path
   d="M 748.638,76.06 C 763.718,46.336 778.144,27.103 788.636,27.103 C 793.443,27.103 795.191,29.725 795.191,32.13 C 795.191,42.839 784.702,58.575 765.687,75.186 L 736.4,100.975 L 735.962,100.539 M 707.987,155.178 C 714.107,142.721 753.883,97.916 765.467,97.916 C 766.563,97.916 767.873,99.228 767.873,100.758 C 767.873,109.5 743.83,124.8 743.83,144.033 C 743.83,153.65 748.202,156.052 752.572,156.052 C 757.817,156.052 765.031,153.65 780.548,136.6 C 786.231,130.483 791.477,124.36 791.477,123.706 C 791.477,123.049 791.039,122.613 790.383,122.613 C 789.292,122.613 784.263,129.608 779.237,134.634 C 766.999,147.31 760.441,153.429 753.665,153.429 C 751.48,153.429 750.388,151.897 750.388,150.37 C 750.388,140.752 774.429,118.678 774.429,106.657 C 774.429,100.974 772.026,95.292 765.688,95.292 C 758.038,95.292 742.084,109.062 717.823,136.819 L 717.385,136.381 C 724.379,126.11 734.654,106.876 735.528,105.564 C 742.959,94.418 799.565,58.574 800.003,35.407 C 800.003,27.537 796.942,24.479 789.512,24.479 C 764.159,24.479 737.276,83.707 729.626,93.543 C 714.983,112.34 702.525,124.357 702.525,125.889 C 702.525,126.763 702.743,127.201 703.399,127.201 C 704.274,127.201 704.274,126.326 713.67,116.054 C 721.539,107.53 724.601,102.941 730.717,96.166 L 730.938,96.603 C 718.698,114.96 706.459,134.85 694.439,155.176 L 707.987,155.176 L 707.987,155.178 z"
   id="path19"
   style="fill:#231f20" />
</svg>